<svg width="256" height="256" viewBox="0 0 256 256" fill="none" xmlns="http://www.w3.org/2000/svg">
    <g>
        <rect width="256" height="256" rx="20" fill="#2EB2FC"/>
        <path d="M74.584 101.6C78.232 101.6 81.328 101.96 83.872 102.68C86.464 103.352 88.552 104.456 90.136 105.992C91.768 107.48 92.944 109.424 93.664 111.824C94.384 114.224 94.744 117.152 94.744 120.608V132.992C94.744 136.448 94.384 139.4 93.664 141.848C92.944 144.248 91.768 146.216 90.136 147.752C88.552 149.24 86.464 150.32 83.872 150.992C81.328 151.664 78.232 152 74.584 152H52.336C48.688 152 45.592 151.664 43.048 150.992C40.504 150.32 38.416 149.24 36.784 147.752C35.2 146.216 34.024 144.248 33.256 141.848C32.536 139.4 32.176 136.448 32.176 132.992V120.608C32.176 117.152 32.536 114.224 33.256 111.824C34.024 109.424 35.2 107.48 36.784 105.992C38.416 104.456 40.504 103.352 43.048 102.68C45.592 101.96 48.688 101.6 52.336 101.6H74.584ZM43.192 132.2C43.192 134.072 43.336 135.656 43.624 136.952C43.96 138.2 44.488 139.208 45.208 139.976C45.928 140.696 46.888 141.224 48.088 141.56C49.336 141.848 50.896 141.992 52.768 141.992H74.152C76.024 141.992 77.56 141.848 78.76 141.56C80.008 141.224 80.992 140.696 81.712 139.976C82.432 139.208 82.936 138.2 83.224 136.952C83.56 135.656 83.728 134.072 83.728 132.2V121.4C83.728 119.528 83.56 117.968 83.224 116.72C82.936 115.424 82.432 114.416 81.712 113.696C80.992 112.928 80.008 112.4 78.76 112.112C77.56 111.776 76.024 111.608 74.152 111.608H52.768C50.896 111.608 49.336 111.776 48.088 112.112C46.888 112.4 45.928 112.928 45.208 113.696C44.488 114.416 43.96 115.424 43.624 116.72C43.336 117.968 43.192 119.528 43.192 121.4V132.2ZM139.553 101.6C143.441 101.6 146.777 102.008 149.561 102.824C152.345 103.592 154.625 104.816 156.401 106.496C158.177 108.128 159.473 110.24 160.289 112.832C161.153 115.376 161.585 118.4 161.585 121.904V131.696C161.585 135.2 161.153 138.248 160.289 140.84C159.473 143.384 158.177 145.496 156.401 147.176C154.625 148.808 152.345 150.032 149.561 150.848C146.777 151.616 143.441 152 139.553 152H105.857C104.417 152 103.697 151.28 103.697 149.84V103.76C103.697 102.32 104.417 101.6 105.857 101.6H139.553ZM114.713 141.056C114.713 141.68 115.025 141.992 115.649 141.992H139.265C141.377 141.992 143.153 141.8 144.593 141.416C146.033 141.032 147.185 140.408 148.049 139.544C148.961 138.68 149.609 137.528 149.993 136.088C150.377 134.648 150.569 132.872 150.569 130.76V122.84C150.569 120.728 150.377 118.952 149.993 117.512C149.609 116.072 148.961 114.92 148.049 114.056C147.185 113.192 146.033 112.568 144.593 112.184C143.153 111.8 141.377 111.608 139.265 111.608H115.649C115.025 111.608 114.713 111.944 114.713 112.616V141.056ZM220.605 101.6C221.661 101.6 222.189 102.128 222.189 103.184V110.024C222.189 111.08 221.661 111.608 220.605 111.608H184.533C183.141 111.608 182.157 111.968 181.581 112.688C181.005 113.408 180.717 114.392 180.717 115.64V118.088C180.717 120.776 181.965 122.12 184.461 122.12H211.461C215.637 122.12 218.781 123.2 220.893 125.36C223.005 127.472 224.061 130.52 224.061 134.504V140.264C224.061 143.768 223.029 146.6 220.965 148.76C218.901 150.92 215.685 152 211.317 152H171.429C170.325 152 169.773 151.472 169.773 150.416V143.576C169.773 142.52 170.325 141.992 171.429 141.992H209.229C210.621 141.992 211.605 141.632 212.181 140.912C212.757 140.192 213.045 139.208 213.045 137.96V135.008C213.045 132.32 211.797 130.976 209.301 130.976H182.301C178.125 130.976 174.981 129.92 172.869 127.808C170.757 125.648 169.701 122.576 169.701 118.592V113.336C169.701 109.832 170.733 107 172.797 104.84C174.861 102.68 178.077 101.6 182.445 101.6H220.605Z"
              fill="white"/>
    </g>
</svg>